<mxfile host="app.diagrams.net" agent="Mozilla/5.0 (Windows NT 10.0; Win64; x64) AppleWebKit/537.36 (KHTML, like Gecko) Chrome/128.0.0.0 Safari/537.36" version="24.7.8">
  <diagram name="Page-1" id="a4fzxQVyhqMLBElOmJyn">
    <mxGraphModel dx="1512" dy="1221" grid="0" gridSize="10" guides="1" tooltips="1" connect="1" arrows="1" fold="1" page="0" pageScale="1" pageWidth="850" pageHeight="1100" math="0" shadow="0">
      <root>
        <mxCell id="0" />
        <mxCell id="1" parent="0" />
        <mxCell id="mnOFoiq0Q99e09Ja34rx-17" value="" style="edgeStyle=none;curved=1;rounded=0;orthogonalLoop=1;jettySize=auto;html=1;fontSize=12;startSize=8;endSize=8;" edge="1" parent="1" source="mnOFoiq0Q99e09Ja34rx-1" target="mnOFoiq0Q99e09Ja34rx-5">
          <mxGeometry relative="1" as="geometry" />
        </mxCell>
        <mxCell id="mnOFoiq0Q99e09Ja34rx-1" value="START" style="rounded=1;whiteSpace=wrap;html=1;" vertex="1" parent="1">
          <mxGeometry x="-340.5" y="-32" width="120" height="60" as="geometry" />
        </mxCell>
        <mxCell id="mnOFoiq0Q99e09Ja34rx-2" value="STOP" style="rounded=1;whiteSpace=wrap;html=1;" vertex="1" parent="1">
          <mxGeometry x="-335" y="598" width="120" height="60" as="geometry" />
        </mxCell>
        <mxCell id="mnOFoiq0Q99e09Ja34rx-18" value="" style="edgeStyle=none;curved=1;rounded=0;orthogonalLoop=1;jettySize=auto;html=1;fontSize=12;startSize=8;endSize=8;" edge="1" parent="1" source="mnOFoiq0Q99e09Ja34rx-5" target="mnOFoiq0Q99e09Ja34rx-12">
          <mxGeometry relative="1" as="geometry" />
        </mxCell>
        <mxCell id="mnOFoiq0Q99e09Ja34rx-5" value="x (float)&lt;div&gt;&quot;Enter a number&quot;&lt;/div&gt;" style="shape=card;whiteSpace=wrap;html=1;" vertex="1" parent="1">
          <mxGeometry x="-363" y="111" width="165" height="60" as="geometry" />
        </mxCell>
        <mxCell id="mnOFoiq0Q99e09Ja34rx-15" style="edgeStyle=none;curved=1;rounded=0;orthogonalLoop=1;jettySize=auto;html=1;fontSize=12;startSize=8;endSize=8;" edge="1" parent="1" source="mnOFoiq0Q99e09Ja34rx-7">
          <mxGeometry relative="1" as="geometry">
            <mxPoint x="-284" y="493" as="targetPoint" />
          </mxGeometry>
        </mxCell>
        <mxCell id="mnOFoiq0Q99e09Ja34rx-7" value="print(&#39;Positive&#39;)" style="shape=document;whiteSpace=wrap;html=1;boundedLbl=1;" vertex="1" parent="1">
          <mxGeometry x="-146" y="353" width="141" height="62" as="geometry" />
        </mxCell>
        <mxCell id="mnOFoiq0Q99e09Ja34rx-16" style="edgeStyle=none;curved=1;rounded=0;orthogonalLoop=1;jettySize=auto;html=1;fontSize=12;startSize=8;endSize=8;" edge="1" parent="1" source="mnOFoiq0Q99e09Ja34rx-11">
          <mxGeometry relative="1" as="geometry">
            <mxPoint x="-289" y="491" as="targetPoint" />
          </mxGeometry>
        </mxCell>
        <mxCell id="mnOFoiq0Q99e09Ja34rx-11" value="print(&#39;negative/zero&#39;)" style="shape=document;whiteSpace=wrap;html=1;boundedLbl=1;" vertex="1" parent="1">
          <mxGeometry x="-533" y="351" width="141" height="62" as="geometry" />
        </mxCell>
        <mxCell id="mnOFoiq0Q99e09Ja34rx-13" style="edgeStyle=none;curved=1;rounded=0;orthogonalLoop=1;jettySize=auto;html=1;fontSize=12;startSize=8;endSize=8;" edge="1" parent="1" source="mnOFoiq0Q99e09Ja34rx-12" target="mnOFoiq0Q99e09Ja34rx-7">
          <mxGeometry relative="1" as="geometry" />
        </mxCell>
        <mxCell id="mnOFoiq0Q99e09Ja34rx-19" value="yes" style="edgeLabel;html=1;align=center;verticalAlign=middle;resizable=0;points=[];fontSize=12;" vertex="1" connectable="0" parent="mnOFoiq0Q99e09Ja34rx-13">
          <mxGeometry x="0.5325" y="-1" relative="1" as="geometry">
            <mxPoint x="-1" as="offset" />
          </mxGeometry>
        </mxCell>
        <mxCell id="mnOFoiq0Q99e09Ja34rx-14" style="edgeStyle=none;curved=1;rounded=0;orthogonalLoop=1;jettySize=auto;html=1;fontSize=12;startSize=8;endSize=8;" edge="1" parent="1" source="mnOFoiq0Q99e09Ja34rx-12">
          <mxGeometry relative="1" as="geometry">
            <mxPoint x="-470" y="344" as="targetPoint" />
          </mxGeometry>
        </mxCell>
        <mxCell id="mnOFoiq0Q99e09Ja34rx-20" value="no" style="edgeLabel;html=1;align=center;verticalAlign=middle;resizable=0;points=[];fontSize=12;" vertex="1" connectable="0" parent="mnOFoiq0Q99e09Ja34rx-14">
          <mxGeometry x="0.1502" y="1" relative="1" as="geometry">
            <mxPoint as="offset" />
          </mxGeometry>
        </mxCell>
        <mxCell id="mnOFoiq0Q99e09Ja34rx-12" value="x &amp;gt; 0" style="rhombus;whiteSpace=wrap;html=1;" vertex="1" parent="1">
          <mxGeometry x="-335" y="228" width="109" height="101" as="geometry" />
        </mxCell>
        <mxCell id="mnOFoiq0Q99e09Ja34rx-21" value="print(&#39;goodbye...&#39;)" style="shape=document;whiteSpace=wrap;html=1;boundedLbl=1;" vertex="1" parent="1">
          <mxGeometry x="-345.5" y="503" width="141" height="62" as="geometry" />
        </mxCell>
      </root>
    </mxGraphModel>
  </diagram>
</mxfile>
